<?xml version="1.0" encoding="UTF-8" standalone="no"?>
<!DOCTYPE svg PUBLIC "-//W3C//DTD SVG 1.1//EN"
 "http://www.w3.org/Graphics/SVG/1.1/DTD/svg11.dtd">
<!-- Generated by graphviz version 14.1.5 (20260411.2331)
 -->
<!-- Title: ORAMTree Pages: 1 -->
<svg width="1260pt" height="339pt"
 viewBox="0.00 0.00 1260.00 339.00" xmlns="http://www.w3.org/2000/svg" xmlns:xlink="http://www.w3.org/1999/xlink">
<g id="graph0" class="graph" transform="scale(1 1) rotate(0) translate(4 334.5)">
<title>ORAMTree</title>
<polygon fill="white" stroke="none" points="-4,4 -4,-334.5 1256,-334.5 1256,4 -4,4"/>
<text xml:space="preserve" text-anchor="middle" x="626" y="-313.2" font-family="Times,serif" font-size="14.00">Before access | logical block 3 | old leaf 3 | path [1, 2, 5, 11] | stash size 0</text>
<!-- b1 -->
<g id="node1" class="node">
<title>b1</title>
<path fill="#ffe599" stroke="#cc0000" stroke-width="3" d="M631,-306C631,-306 525,-306 525,-306 519,-306 513,-300 513,-294 513,-294 513,-282 513,-282 513,-276 519,-270 525,-270 525,-270 631,-270 631,-270 637,-270 643,-276 643,-282 643,-282 643,-294 643,-294 643,-300 637,-306 631,-306"/>
<text xml:space="preserve" text-anchor="middle" x="578" y="-284.88" font-family="Menlo" font-size="10.00">bucket 1\nB3@L3 | D</text>
</g>
<!-- b2 -->
<g id="node2" class="node">
<title>b2</title>
<path fill="#ffe599" stroke="#cc0000" stroke-width="3" d="M469,-216C469,-216 387,-216 387,-216 381,-216 375,-210 375,-204 375,-204 375,-192 375,-192 375,-186 381,-180 387,-180 387,-180 469,-180 469,-180 475,-180 481,-186 481,-192 481,-192 481,-204 481,-204 481,-210 475,-216 469,-216"/>
<text xml:space="preserve" text-anchor="middle" x="428" y="-194.88" font-family="Menlo" font-size="10.00">bucket 2\nD | D</text>
</g>
<!-- b1&#45;&gt;b2 -->
<g id="edge1" class="edge">
<title>b1&#45;&gt;b2</title>
<path fill="none" stroke="#555555" d="M546.56,-268.55C524.05,-255.35 493.55,-237.46 469.12,-223.12"/>
<polygon fill="#555555" stroke="#555555" points="471.11,-220.23 460.71,-218.19 467.56,-226.27 471.11,-220.23"/>
</g>
<!-- b3 -->
<g id="node3" class="node">
<title>b3</title>
<path fill="#f3f4f6" stroke="#555555" d="M775,-216C775,-216 693,-216 693,-216 687,-216 681,-210 681,-204 681,-204 681,-192 681,-192 681,-186 687,-180 693,-180 693,-180 775,-180 775,-180 781,-180 787,-186 787,-192 787,-192 787,-204 787,-204 787,-210 781,-216 775,-216"/>
<text xml:space="preserve" text-anchor="middle" x="734" y="-194.88" font-family="Menlo" font-size="10.00">bucket 3\nD | D</text>
</g>
<!-- b1&#45;&gt;b3 -->
<g id="edge2" class="edge">
<title>b1&#45;&gt;b3</title>
<path fill="none" stroke="#555555" d="M610.7,-268.55C634.76,-254.98 667.61,-236.45 693.36,-221.93"/>
<polygon fill="#555555" stroke="#555555" points="694.89,-225.08 701.88,-217.12 691.45,-218.98 694.89,-225.08"/>
</g>
<!-- b4 -->
<g id="node4" class="node">
<title>b4</title>
<path fill="#f3f4f6" stroke="#555555" d="M256,-126C256,-126 174,-126 174,-126 168,-126 162,-120 162,-114 162,-114 162,-102 162,-102 162,-96 168,-90 174,-90 174,-90 256,-90 256,-90 262,-90 268,-96 268,-102 268,-102 268,-114 268,-114 268,-120 262,-126 256,-126"/>
<text xml:space="preserve" text-anchor="middle" x="215" y="-104.88" font-family="Menlo" font-size="10.00">bucket 4\nD | D</text>
</g>
<!-- b2&#45;&gt;b4 -->
<g id="edge3" class="edge">
<title>b2&#45;&gt;b4</title>
<path fill="none" stroke="#555555" d="M383.35,-178.55C349.48,-164.56 302.85,-145.3 267.25,-130.59"/>
<polygon fill="#555555" stroke="#555555" points="269.03,-127.54 258.46,-126.95 266.36,-134.01 269.03,-127.54"/>
</g>
<!-- b5 -->
<g id="node5" class="node">
<title>b5</title>
<path fill="#ffe599" stroke="#cc0000" stroke-width="3" d="M469,-126C469,-126 387,-126 387,-126 381,-126 375,-120 375,-114 375,-114 375,-102 375,-102 375,-96 381,-90 387,-90 387,-90 469,-90 469,-90 475,-90 481,-96 481,-102 481,-102 481,-114 481,-114 481,-120 475,-126 469,-126"/>
<text xml:space="preserve" text-anchor="middle" x="428" y="-104.88" font-family="Menlo" font-size="10.00">bucket 5\nD | D</text>
</g>
<!-- b2&#45;&gt;b5 -->
<g id="edge4" class="edge">
<title>b2&#45;&gt;b5</title>
<path fill="none" stroke="#555555" d="M428,-178.77C428,-167.2 428,-151.97 428,-138.7"/>
<polygon fill="#555555" stroke="#555555" points="431.5,-138.72 428,-128.72 424.5,-138.72 431.5,-138.72"/>
</g>
<!-- b6 -->
<g id="node6" class="node">
<title>b6</title>
<path fill="#f3f4f6" stroke="#555555" d="M775,-126C775,-126 693,-126 693,-126 687,-126 681,-120 681,-114 681,-114 681,-102 681,-102 681,-96 687,-90 693,-90 693,-90 775,-90 775,-90 781,-90 787,-96 787,-102 787,-102 787,-114 787,-114 787,-120 781,-126 775,-126"/>
<text xml:space="preserve" text-anchor="middle" x="734" y="-104.88" font-family="Menlo" font-size="10.00">bucket 6\nD | D</text>
</g>
<!-- b3&#45;&gt;b6 -->
<g id="edge5" class="edge">
<title>b3&#45;&gt;b6</title>
<path fill="none" stroke="#555555" d="M734,-179.61C734,-167.68 734,-151.57 734,-137.74"/>
<polygon fill="#555555" stroke="#555555" points="737.5,-137.86 734,-127.86 730.5,-137.86 737.5,-137.86"/>
</g>
<!-- b7 -->
<g id="node7" class="node">
<title>b7</title>
<path fill="#f3f4f6" stroke="#555555" d="M1033,-126C1033,-126 927,-126 927,-126 921,-126 915,-120 915,-114 915,-114 915,-102 915,-102 915,-96 921,-90 927,-90 927,-90 1033,-90 1033,-90 1039,-90 1045,-96 1045,-102 1045,-102 1045,-114 1045,-114 1045,-120 1039,-126 1033,-126"/>
<text xml:space="preserve" text-anchor="middle" x="980" y="-104.88" font-family="Menlo" font-size="10.00">bucket 7\nB5@L6 | D</text>
</g>
<!-- b3&#45;&gt;b7 -->
<g id="edge6" class="edge">
<title>b3&#45;&gt;b7</title>
<path fill="none" stroke="#555555" d="M782.9,-179.51C822.47,-165.35 878.35,-145.36 920.52,-130.28"/>
<polygon fill="#555555" stroke="#555555" points="921.53,-133.63 929.77,-126.97 919.18,-127.04 921.53,-133.63"/>
</g>
<!-- b8 -->
<g id="node8" class="node">
<title>b8</title>
<path fill="#f3f4f6" stroke="#555555" d="M118,-36C118,-36 12,-36 12,-36 6,-36 0,-30 0,-24 0,-24 0,-12 0,-12 0,-6 6,0 12,0 12,0 118,0 118,0 124,0 130,-6 130,-12 130,-12 130,-24 130,-24 130,-30 124,-36 118,-36"/>
<text xml:space="preserve" text-anchor="middle" x="65" y="-14.88" font-family="Menlo" font-size="10.00">bucket 8\nB2@L0 | D</text>
</g>
<!-- b4&#45;&gt;b8 -->
<g id="edge7" class="edge">
<title>b4&#45;&gt;b8</title>
<path fill="none" stroke="#555555" d="M185.36,-89.61C162.15,-75.99 129.65,-56.93 104.27,-42.04"/>
<polygon fill="#555555" stroke="#555555" points="106.28,-39.16 95.88,-37.12 102.73,-45.19 106.28,-39.16"/>
</g>
<!-- b9 -->
<g id="node9" class="node">
<title>b9</title>
<path fill="#f3f4f6" stroke="#555555" d="M256,-36C256,-36 174,-36 174,-36 168,-36 162,-30 162,-24 162,-24 162,-12 162,-12 162,-6 168,0 174,0 174,0 256,0 256,0 262,0 268,-6 268,-12 268,-12 268,-24 268,-24 268,-30 262,-36 256,-36"/>
<text xml:space="preserve" text-anchor="middle" x="215" y="-14.88" font-family="Menlo" font-size="10.00">bucket 9\nD | D</text>
</g>
<!-- b4&#45;&gt;b9 -->
<g id="edge8" class="edge">
<title>b4&#45;&gt;b9</title>
<path fill="none" stroke="#555555" d="M215,-89.61C215,-77.68 215,-61.57 215,-47.74"/>
<polygon fill="#555555" stroke="#555555" points="218.5,-47.86 215,-37.86 211.5,-47.86 218.5,-47.86"/>
</g>
<!-- b10 -->
<g id="node10" class="node">
<title>b10</title>
<path fill="#f3f4f6" stroke="#555555" d="M400,-36C400,-36 312,-36 312,-36 306,-36 300,-30 300,-24 300,-24 300,-12 300,-12 300,-6 306,0 312,0 312,0 400,0 400,0 406,0 412,-6 412,-12 412,-12 412,-24 412,-24 412,-30 406,-36 400,-36"/>
<text xml:space="preserve" text-anchor="middle" x="356" y="-14.88" font-family="Menlo" font-size="10.00">bucket 10\nD | D</text>
</g>
<!-- b5&#45;&gt;b10 -->
<g id="edge9" class="edge">
<title>b5&#45;&gt;b10</title>
<path fill="none" stroke="#555555" d="M413.08,-88.77C402.74,-76.13 388.82,-59.11 377.31,-45.05"/>
<polygon fill="#555555" stroke="#555555" points="380.16,-43.01 371.12,-37.48 374.75,-47.44 380.16,-43.01"/>
</g>
<!-- b11 -->
<g id="node11" class="node">
<title>b11</title>
<path fill="#ffe599" stroke="#cc0000" stroke-width="3" d="M544,-36C544,-36 456,-36 456,-36 450,-36 444,-30 444,-24 444,-24 444,-12 444,-12 444,-6 450,0 456,0 456,0 544,0 544,0 550,0 556,-6 556,-12 556,-12 556,-24 556,-24 556,-30 550,-36 544,-36"/>
<text xml:space="preserve" text-anchor="middle" x="500" y="-14.88" font-family="Menlo" font-size="10.00">bucket 11\nD | D</text>
</g>
<!-- b5&#45;&gt;b11 -->
<g id="edge10" class="edge">
<title>b5&#45;&gt;b11</title>
<path fill="none" stroke="#555555" d="M442.92,-88.77C453.06,-76.38 466.63,-59.78 478.01,-45.88"/>
<polygon fill="#555555" stroke="#555555" points="480.52,-48.34 484.14,-38.38 475.1,-43.9 480.52,-48.34"/>
</g>
<!-- b12 -->
<g id="node12" class="node">
<title>b12</title>
<path fill="#f3f4f6" stroke="#555555" d="M712,-36C712,-36 600,-36 600,-36 594,-36 588,-30 588,-24 588,-24 588,-12 588,-12 588,-6 594,0 600,0 600,0 712,0 712,0 718,0 724,-6 724,-12 724,-12 724,-24 724,-24 724,-30 718,-36 712,-36"/>
<text xml:space="preserve" text-anchor="middle" x="656" y="-14.88" font-family="Menlo" font-size="10.00">bucket 12\nB6@L4 | D</text>
</g>
<!-- b6&#45;&gt;b12 -->
<g id="edge11" class="edge">
<title>b6&#45;&gt;b12</title>
<path fill="none" stroke="#555555" d="M718.59,-89.61C707.27,-76.84 691.69,-59.27 678.91,-44.85"/>
<polygon fill="#555555" stroke="#555555" points="681.63,-42.64 672.38,-37.48 676.4,-47.29 681.63,-42.64"/>
</g>
<!-- b13 -->
<g id="node13" class="node">
<title>b13</title>
<path fill="#f3f4f6" stroke="#555555" d="M856,-36C856,-36 768,-36 768,-36 762,-36 756,-30 756,-24 756,-24 756,-12 756,-12 756,-6 762,0 768,0 768,0 856,0 856,0 862,0 868,-6 868,-12 868,-12 868,-24 868,-24 868,-30 862,-36 856,-36"/>
<text xml:space="preserve" text-anchor="middle" x="812" y="-14.88" font-family="Menlo" font-size="10.00">bucket 13\nD | D</text>
</g>
<!-- b6&#45;&gt;b13 -->
<g id="edge12" class="edge">
<title>b6&#45;&gt;b13</title>
<path fill="none" stroke="#555555" d="M749.41,-89.61C760.73,-76.84 776.31,-59.27 789.09,-44.85"/>
<polygon fill="#555555" stroke="#555555" points="791.6,-47.29 795.62,-37.48 786.37,-42.64 791.6,-47.29"/>
</g>
<!-- b14 -->
<g id="node14" class="node">
<title>b14</title>
<path fill="#f3f4f6" stroke="#555555" d="M1048,-36C1048,-36 912,-36 912,-36 906,-36 900,-30 900,-24 900,-24 900,-12 900,-12 900,-6 906,0 912,0 912,0 1048,0 1048,0 1054,0 1060,-6 1060,-12 1060,-12 1060,-24 1060,-24 1060,-30 1054,-36 1048,-36"/>
<text xml:space="preserve" text-anchor="middle" x="980" y="-14.88" font-family="Menlo" font-size="10.00">bucket 14\nB0@L6 | B1@L6</text>
</g>
<!-- b7&#45;&gt;b14 -->
<g id="edge13" class="edge">
<title>b7&#45;&gt;b14</title>
<path fill="none" stroke="#555555" d="M980,-89.61C980,-77.68 980,-61.57 980,-47.74"/>
<polygon fill="#555555" stroke="#555555" points="983.5,-47.86 980,-37.86 976.5,-47.86 983.5,-47.86"/>
</g>
<!-- b15 -->
<g id="node15" class="node">
<title>b15</title>
<path fill="#f3f4f6" stroke="#555555" d="M1240,-36C1240,-36 1104,-36 1104,-36 1098,-36 1092,-30 1092,-24 1092,-24 1092,-12 1092,-12 1092,-6 1098,0 1104,0 1104,0 1240,0 1240,0 1246,0 1252,-6 1252,-12 1252,-12 1252,-24 1252,-24 1252,-30 1246,-36 1240,-36"/>
<text xml:space="preserve" text-anchor="middle" x="1172" y="-14.88" font-family="Menlo" font-size="10.00">bucket 15\nB4@L7 | B7@L7</text>
</g>
<!-- b7&#45;&gt;b15 -->
<g id="edge14" class="edge">
<title>b7&#45;&gt;b15</title>
<path fill="none" stroke="#555555" d="M1017.93,-89.61C1048.31,-75.69 1091.1,-56.08 1123.88,-41.05"/>
<polygon fill="#555555" stroke="#555555" points="1125.14,-44.33 1132.77,-36.98 1122.22,-37.97 1125.14,-44.33"/>
</g>
</g>
</svg>
