<?xml version="1.0" encoding="UTF-8" standalone="no"?>
<!DOCTYPE svg PUBLIC "-//W3C//DTD SVG 1.1//EN"
 "http://www.w3.org/Graphics/SVG/1.1/DTD/svg11.dtd">
<!-- Generated by graphviz version 14.1.5 (20260411.2331)
 -->
<!-- Title: ORAMTree Pages: 1 -->
<svg width="1284pt" height="339pt"
 viewBox="0.00 0.00 1284.00 339.00" xmlns="http://www.w3.org/2000/svg" xmlns:xlink="http://www.w3.org/1999/xlink">
<g id="graph0" class="graph" transform="scale(1 1) rotate(0) translate(4 334.5)">
<title>ORAMTree</title>
<polygon fill="white" stroke="none" points="-4,4 -4,-334.5 1280,-334.5 1280,4 -4,4"/>
<text xml:space="preserve" text-anchor="middle" x="638" y="-313.2" font-family="Times,serif" font-size="14.00">After path read into stash | logical block 3 | old leaf 4 | new leaf 5 | path [1, 3, 6, 12] | stash size 2</text>
<!-- b1 -->
<g id="node1" class="node">
<title>b1</title>
<path fill="#ffe599" stroke="#cc0000" stroke-width="3" d="M625,-306C625,-306 543,-306 543,-306 537,-306 531,-300 531,-294 531,-294 531,-282 531,-282 531,-276 537,-270 543,-270 543,-270 625,-270 625,-270 631,-270 637,-276 637,-282 637,-282 637,-294 637,-294 637,-300 631,-306 625,-306"/>
<text xml:space="preserve" text-anchor="middle" x="584" y="-284.88" font-family="Menlo" font-size="10.00">bucket 1\nD | D</text>
</g>
<!-- b2 -->
<g id="node2" class="node">
<title>b2</title>
<path fill="#f3f4f6" stroke="#555555" d="M469,-216C469,-216 387,-216 387,-216 381,-216 375,-210 375,-204 375,-204 375,-192 375,-192 375,-186 381,-180 387,-180 387,-180 469,-180 469,-180 475,-180 481,-186 481,-192 481,-192 481,-204 481,-204 481,-210 475,-216 469,-216"/>
<text xml:space="preserve" text-anchor="middle" x="428" y="-194.88" font-family="Menlo" font-size="10.00">bucket 2\nD | D</text>
</g>
<!-- b1&#45;&gt;b2 -->
<g id="edge1" class="edge">
<title>b1&#45;&gt;b2</title>
<path fill="none" stroke="#555555" d="M551.3,-268.55C527.24,-254.98 494.39,-236.45 468.64,-221.93"/>
<polygon fill="#555555" stroke="#555555" points="470.55,-218.98 460.12,-217.12 467.11,-225.08 470.55,-218.98"/>
</g>
<!-- b3 -->
<g id="node3" class="node">
<title>b3</title>
<path fill="#ffe599" stroke="#cc0000" stroke-width="3" d="M793,-216C793,-216 711,-216 711,-216 705,-216 699,-210 699,-204 699,-204 699,-192 699,-192 699,-186 705,-180 711,-180 711,-180 793,-180 793,-180 799,-180 805,-186 805,-192 805,-192 805,-204 805,-204 805,-210 799,-216 793,-216"/>
<text xml:space="preserve" text-anchor="middle" x="752" y="-194.88" font-family="Menlo" font-size="10.00">bucket 3\nD | D</text>
</g>
<!-- b1&#45;&gt;b3 -->
<g id="edge2" class="edge">
<title>b1&#45;&gt;b3</title>
<path fill="none" stroke="#555555" d="M619.22,-268.55C644.64,-255.23 679.19,-237.14 706.67,-222.74"/>
<polygon fill="#555555" stroke="#555555" points="708.25,-225.87 715.49,-218.13 705,-219.67 708.25,-225.87"/>
</g>
<!-- b4 -->
<g id="node4" class="node">
<title>b4</title>
<path fill="#f3f4f6" stroke="#555555" d="M256,-126C256,-126 174,-126 174,-126 168,-126 162,-120 162,-114 162,-114 162,-102 162,-102 162,-96 168,-90 174,-90 174,-90 256,-90 256,-90 262,-90 268,-96 268,-102 268,-102 268,-114 268,-114 268,-120 262,-126 256,-126"/>
<text xml:space="preserve" text-anchor="middle" x="215" y="-104.88" font-family="Menlo" font-size="10.00">bucket 4\nD | D</text>
</g>
<!-- b2&#45;&gt;b4 -->
<g id="edge3" class="edge">
<title>b2&#45;&gt;b4</title>
<path fill="none" stroke="#555555" d="M385.66,-179.51C351.76,-165.5 304.04,-145.78 267.67,-130.76"/>
<polygon fill="#555555" stroke="#555555" points="269.23,-127.62 258.66,-127.04 266.56,-134.09 269.23,-127.62"/>
</g>
<!-- b5 -->
<g id="node5" class="node">
<title>b5</title>
<path fill="#f3f4f6" stroke="#555555" d="M469,-126C469,-126 387,-126 387,-126 381,-126 375,-120 375,-114 375,-114 375,-102 375,-102 375,-96 381,-90 387,-90 387,-90 469,-90 469,-90 475,-90 481,-96 481,-102 481,-102 481,-114 481,-114 481,-120 475,-126 469,-126"/>
<text xml:space="preserve" text-anchor="middle" x="428" y="-104.88" font-family="Menlo" font-size="10.00">bucket 5\nD | D</text>
</g>
<!-- b2&#45;&gt;b5 -->
<g id="edge4" class="edge">
<title>b2&#45;&gt;b5</title>
<path fill="none" stroke="#555555" d="M428,-179.61C428,-167.68 428,-151.57 428,-137.74"/>
<polygon fill="#555555" stroke="#555555" points="431.5,-137.86 428,-127.86 424.5,-137.86 431.5,-137.86"/>
</g>
<!-- b6 -->
<g id="node6" class="node">
<title>b6</title>
<path fill="#ffe599" stroke="#cc0000" stroke-width="3" d="M793,-126C793,-126 711,-126 711,-126 705,-126 699,-120 699,-114 699,-114 699,-102 699,-102 699,-96 705,-90 711,-90 711,-90 793,-90 793,-90 799,-90 805,-96 805,-102 805,-102 805,-114 805,-114 805,-120 799,-126 793,-126"/>
<text xml:space="preserve" text-anchor="middle" x="752" y="-104.88" font-family="Menlo" font-size="10.00">bucket 6\nD | D</text>
</g>
<!-- b3&#45;&gt;b6 -->
<g id="edge5" class="edge">
<title>b3&#45;&gt;b6</title>
<path fill="none" stroke="#555555" d="M752,-178.77C752,-167.2 752,-151.97 752,-138.7"/>
<polygon fill="#555555" stroke="#555555" points="755.5,-138.72 752,-128.72 748.5,-138.72 755.5,-138.72"/>
</g>
<!-- b7 -->
<g id="node7" class="node">
<title>b7</title>
<path fill="#f3f4f6" stroke="#555555" d="M1057,-126C1057,-126 951,-126 951,-126 945,-126 939,-120 939,-114 939,-114 939,-102 939,-102 939,-96 945,-90 951,-90 951,-90 1057,-90 1057,-90 1063,-90 1069,-96 1069,-102 1069,-102 1069,-114 1069,-114 1069,-120 1063,-126 1057,-126"/>
<text xml:space="preserve" text-anchor="middle" x="1004" y="-104.88" font-family="Menlo" font-size="10.00">bucket 7\nB5@L6 | D</text>
</g>
<!-- b3&#45;&gt;b7 -->
<g id="edge6" class="edge">
<title>b3&#45;&gt;b7</title>
<path fill="none" stroke="#555555" d="M804.83,-178.55C845.32,-164.41 901.25,-144.88 943.53,-130.12"/>
<polygon fill="#555555" stroke="#555555" points="944.53,-133.48 952.81,-126.87 942.22,-126.87 944.53,-133.48"/>
</g>
<!-- b8 -->
<g id="node8" class="node">
<title>b8</title>
<path fill="#f3f4f6" stroke="#555555" d="M118,-36C118,-36 12,-36 12,-36 6,-36 0,-30 0,-24 0,-24 0,-12 0,-12 0,-6 6,0 12,0 12,0 118,0 118,0 124,0 130,-6 130,-12 130,-12 130,-24 130,-24 130,-30 124,-36 118,-36"/>
<text xml:space="preserve" text-anchor="middle" x="65" y="-14.88" font-family="Menlo" font-size="10.00">bucket 8\nB2@L0 | D</text>
</g>
<!-- b4&#45;&gt;b8 -->
<g id="edge7" class="edge">
<title>b4&#45;&gt;b8</title>
<path fill="none" stroke="#555555" d="M185.36,-89.61C162.15,-75.99 129.65,-56.93 104.27,-42.04"/>
<polygon fill="#555555" stroke="#555555" points="106.28,-39.16 95.88,-37.12 102.73,-45.19 106.28,-39.16"/>
</g>
<!-- b9 -->
<g id="node9" class="node">
<title>b9</title>
<path fill="#f3f4f6" stroke="#555555" d="M256,-36C256,-36 174,-36 174,-36 168,-36 162,-30 162,-24 162,-24 162,-12 162,-12 162,-6 168,0 174,0 174,0 256,0 256,0 262,0 268,-6 268,-12 268,-12 268,-24 268,-24 268,-30 262,-36 256,-36"/>
<text xml:space="preserve" text-anchor="middle" x="215" y="-14.88" font-family="Menlo" font-size="10.00">bucket 9\nD | D</text>
</g>
<!-- b4&#45;&gt;b9 -->
<g id="edge8" class="edge">
<title>b4&#45;&gt;b9</title>
<path fill="none" stroke="#555555" d="M215,-89.61C215,-77.68 215,-61.57 215,-47.74"/>
<polygon fill="#555555" stroke="#555555" points="218.5,-47.86 215,-37.86 211.5,-47.86 218.5,-47.86"/>
</g>
<!-- b10 -->
<g id="node10" class="node">
<title>b10</title>
<path fill="#f3f4f6" stroke="#555555" d="M400,-36C400,-36 312,-36 312,-36 306,-36 300,-30 300,-24 300,-24 300,-12 300,-12 300,-6 306,0 312,0 312,0 400,0 400,0 406,0 412,-6 412,-12 412,-12 412,-24 412,-24 412,-30 406,-36 400,-36"/>
<text xml:space="preserve" text-anchor="middle" x="356" y="-14.88" font-family="Menlo" font-size="10.00">bucket 10\nD | D</text>
</g>
<!-- b5&#45;&gt;b10 -->
<g id="edge9" class="edge">
<title>b5&#45;&gt;b10</title>
<path fill="none" stroke="#555555" d="M413.78,-89.61C403.42,-76.96 389.22,-59.6 377.48,-45.26"/>
<polygon fill="#555555" stroke="#555555" points="380.2,-43.04 371.15,-37.52 374.78,-47.48 380.2,-43.04"/>
</g>
<!-- b11 -->
<g id="node11" class="node">
<title>b11</title>
<path fill="#f3f4f6" stroke="#555555" d="M544,-36C544,-36 456,-36 456,-36 450,-36 444,-30 444,-24 444,-24 444,-12 444,-12 444,-6 450,0 456,0 456,0 544,0 544,0 550,0 556,-6 556,-12 556,-12 556,-24 556,-24 556,-30 550,-36 544,-36"/>
<text xml:space="preserve" text-anchor="middle" x="500" y="-14.88" font-family="Menlo" font-size="10.00">bucket 11\nD | D</text>
</g>
<!-- b5&#45;&gt;b11 -->
<g id="edge10" class="edge">
<title>b5&#45;&gt;b11</title>
<path fill="none" stroke="#555555" d="M442.22,-89.61C452.58,-76.96 466.78,-59.6 478.52,-45.26"/>
<polygon fill="#555555" stroke="#555555" points="481.22,-47.48 484.85,-37.52 475.8,-43.04 481.22,-47.48"/>
</g>
<!-- b12 -->
<g id="node12" class="node">
<title>b12</title>
<path fill="#ffe599" stroke="#cc0000" stroke-width="3" d="M736,-36C736,-36 600,-36 600,-36 594,-36 588,-30 588,-24 588,-24 588,-12 588,-12 588,-6 594,0 600,0 600,0 736,0 736,0 742,0 748,-6 748,-12 748,-12 748,-24 748,-24 748,-30 742,-36 736,-36"/>
<text xml:space="preserve" text-anchor="middle" x="668" y="-14.88" font-family="Menlo" font-size="10.00">bucket 12\nB3@L4 | B6@L4</text>
</g>
<!-- b6&#45;&gt;b12 -->
<g id="edge11" class="edge">
<title>b6&#45;&gt;b12</title>
<path fill="none" stroke="#555555" d="M734.6,-88.77C722.66,-76.26 706.62,-59.46 693.28,-45.49"/>
<polygon fill="#555555" stroke="#555555" points="695.86,-43.12 686.43,-38.31 690.8,-47.96 695.86,-43.12"/>
</g>
<!-- b13 -->
<g id="node13" class="node">
<title>b13</title>
<path fill="#f3f4f6" stroke="#555555" d="M880,-36C880,-36 792,-36 792,-36 786,-36 780,-30 780,-24 780,-24 780,-12 780,-12 780,-6 786,0 792,0 792,0 880,0 880,0 886,0 892,-6 892,-12 892,-12 892,-24 892,-24 892,-30 886,-36 880,-36"/>
<text xml:space="preserve" text-anchor="middle" x="836" y="-14.88" font-family="Menlo" font-size="10.00">bucket 13\nD | D</text>
</g>
<!-- b6&#45;&gt;b13 -->
<g id="edge12" class="edge">
<title>b6&#45;&gt;b13</title>
<path fill="none" stroke="#555555" d="M769.4,-88.77C781.7,-75.89 798.33,-58.46 811.9,-44.25"/>
<polygon fill="#555555" stroke="#555555" points="814.06,-47.06 818.43,-37.41 808.99,-42.22 814.06,-47.06"/>
</g>
<!-- b14 -->
<g id="node14" class="node">
<title>b14</title>
<path fill="#f3f4f6" stroke="#555555" d="M1072,-36C1072,-36 936,-36 936,-36 930,-36 924,-30 924,-24 924,-24 924,-12 924,-12 924,-6 930,0 936,0 936,0 1072,0 1072,0 1078,0 1084,-6 1084,-12 1084,-12 1084,-24 1084,-24 1084,-30 1078,-36 1072,-36"/>
<text xml:space="preserve" text-anchor="middle" x="1004" y="-14.88" font-family="Menlo" font-size="10.00">bucket 14\nB0@L6 | B1@L6</text>
</g>
<!-- b7&#45;&gt;b14 -->
<g id="edge13" class="edge">
<title>b7&#45;&gt;b14</title>
<path fill="none" stroke="#555555" d="M1004,-89.61C1004,-77.68 1004,-61.57 1004,-47.74"/>
<polygon fill="#555555" stroke="#555555" points="1007.5,-47.86 1004,-37.86 1000.5,-47.86 1007.5,-47.86"/>
</g>
<!-- b15 -->
<g id="node15" class="node">
<title>b15</title>
<path fill="#f3f4f6" stroke="#555555" d="M1264,-36C1264,-36 1128,-36 1128,-36 1122,-36 1116,-30 1116,-24 1116,-24 1116,-12 1116,-12 1116,-6 1122,0 1128,0 1128,0 1264,0 1264,0 1270,0 1276,-6 1276,-12 1276,-12 1276,-24 1276,-24 1276,-30 1270,-36 1264,-36"/>
<text xml:space="preserve" text-anchor="middle" x="1196" y="-14.88" font-family="Menlo" font-size="10.00">bucket 15\nB4@L7 | B7@L7</text>
</g>
<!-- b7&#45;&gt;b15 -->
<g id="edge14" class="edge">
<title>b7&#45;&gt;b15</title>
<path fill="none" stroke="#555555" d="M1041.93,-89.61C1072.31,-75.69 1115.1,-56.08 1147.88,-41.05"/>
<polygon fill="#555555" stroke="#555555" points="1149.14,-44.33 1156.77,-36.98 1146.22,-37.97 1149.14,-44.33"/>
</g>
</g>
</svg>
